<?xml version="1.0" encoding="utf-8"?>
<!-- Generator: Adobe Illustrator 27.2.0, SVG Export Plug-In . SVG Version: 6.00 Build 0)  -->
<svg version="1.1" id="Layer_1" xmlns="http://www.w3.org/2000/svg" xmlns:xlink="http://www.w3.org/1999/xlink" x="0px" y="0px"
	 viewBox="0 0 1920 1171.3" style="enable-background:new 0 0 1920 1171.3;" xml:space="preserve">
<style type="text/css">
	.st0{fill:#EA482C;}
	.st1{fill:#FAEAD8;}
	.st2{fill:#1E1E1E;}
	.st3{fill:none;}
	.st4{fill:#F6CC12;}
</style>
<g>
	<path class="st0" d="M1937.6,496.5l-67.4,9.5c-3.3,0.5-6.2,4.3-6.5,8.7l-3.6,53.2c-2.8,45.4-9.3,74.8-24,76.9
		c-10.4,1.5-19.4-0.2-13.8-77.4l3.2-45.9c0.3-4.9-2.1-8.4-5.5-7.9l-66.5,8.9c-3.3,0.5-6.6,4.8-6.9,9.7l-4.2,56.2
		c-9.2,130.9,25.6,151.2,68.3,145.2c14.2-2,39.3-21.7,49.3-66.1c0,0-7.5,32.4-12.2,42.7c-6.1,13.6-12.5,27.4-34.7,33.7
		c-25.2,6.4-50.1-5.5-67.6-20c-3.2-2.4-9,5.1-9.5,11.5l-7.7,72.7c-1,6.4,2.4,10.3,6.9,11.1c18.2,2.3,60.9-0.3,77.8-4.2
		c69.9-15.2,105-37.5,120.6-191.6c1.2-11.8,2.4-24.5,2.9-37.7l5.9-82.1C1942.8,499.1,1940.4,496.1,1937.6,496.5z"/>
	<g>
		<path class="st0" d="M117.7,691.8c-6.2,0.9-108.6,15.7-115.2,16.7c-3.3,0.5-6.6,4.8-6.9,9.7C-7.7,763.6-18.7,919.5-22.5,982
			c-0.3,4.9,2.1,8.4,5.5,7.9c25.7-3.1,94.9-13.3,120.5-16.9c52.7-7.4,104.3-60.1,111.2-155.4C221,724.6,172.7,684,117.7,691.8z
			 M135.1,829.6c-1.8,28.3-17.7,56.2-40.5,59.4c-2.4,0.3-22.4,2.7-30.9,3.9L70.8,785c8.1-0.7,26.2-3.2,28.5-3.5
			C128.7,777.3,136.8,800.3,135.1,829.6z"/>
		<path class="st0" d="M370.9,841.4c-1.8-2.6-6.3-0.1-8.7,3.6c-9.3,12.9-23.4,23.1-39.5,25.4c-21.8,3.1-32-7.1-30.8-26.2l64.5-9.1
			c28-3.9,46.9-38,42.3-70.8c-5.9-38.4-33.8-47.5-73.5-44.3c-56.8,5.1-100.5,45.6-106.1,126.2c-6.5,91.4,44.9,105.9,96.2,99.2
			c29.9-3.7,63.5-23.4,83.7-58.7c2.3-4.2,0.3-8.3-2.1-11.3L370.9,841.4z M317.4,780.8c5.4-2.7,12.7-2.7,15.8,2.1
			c7.4,8.1-0.4,38.3-21.3,41.2l-18,2.5C298.1,798,304.9,784.9,317.4,780.8z"/>
		<path class="st0" d="M513.3,828.7l-9.5,1.3c-20.9,2.9-18-38.6-16.7-60.1c0.8-8.3,4-54.3,4.3-62.5c3.5-47.4,2.9-41.5,5.2-72.8
			c0.2-5.4-1.8-9.4-5.6-8.9l-68.3,9.6c-3.8,0.5-6.6,4.8-6.9,9.7c-2.9,41-8.2,134.7-12.1,189.4c-5.3,75.7,29.4,92.1,69.7,86.5
			l33.7-4.7c3.8-0.5,6.6-4.8,7.3-9.7l4.7-69.8C519.5,831.7,517.1,828.2,513.3,828.7z"/>
		<path class="st0" d="M609.8,703.4l-67.4,9.5c-4.3,0.6-6.4,5.7-6.9,9.7c-2.9,38.1-8.4,126-12.1,182.6c-0.3,4.9,2.1,8.4,5.9,7.9
			l67.4-9.5c1.4-0.2,3.2-1.4,4.3-3.5c1.2-1.6,2.3-4.2,2.5-6.2c3-51.2,8.2-134.2,11.6-182.5C615.6,706.4,613.1,702.9,609.8,703.4z"/>
		<path class="st0" d="M622.7,623.2c1-10.3-3.8-16.9-11.4-15.8c-9.5,1.3-46.5,6.5-56.4,7.9c-7.1,1-12.8,9-13.7,19.3
			c-0.8,11.2-2.1,33.2-2.9,44.4c-0.9,10.8,3.8,16.9,11.4,15.8c9.5-1.3,46.5-6.5,56.4-7.9c7.6-1.1,12.8-8.6,13.7-19.3
			C620.6,656.4,621.9,634.4,622.7,623.2z"/>
		<path class="st0" d="M841.2,649.6l-70.7,9.9c-3.3,0.5-6.2,3.8-7.6,7.8l-21.2,73.1c0,0-17.3,52-18.1,72.2c1.5-20.2-8-68.5-8-68.5
			l-12.5-68.4c-0.5-3.8-3.3-6.3-6.2-5.9l-71.6,10.1c-2.4,0.3-4.8,4.1-4.2,7.8L673.2,886c0.5,3.3,2.8,5.9,5.6,5.5l78.8-10.6
			c2.8-0.4,5.3-3.6,6.7-7.7l79.8-216.8C845.5,652.4,844.1,649.2,841.2,649.6z"/>
		<path class="st0" d="M999.4,790.8l-26.1-34.1c-1.8-2.6-6.3-0.1-8.7,3.6c-9.3,12.9-23.4,23.1-39.5,25.4c-21.8,3.1-32-7.1-30.8-26.2
			l64.5-9.1c28-3.9,46.9-38,42.3-70.8c-5.9-38.4-33.8-47.5-73.5-44.3c-56.9,5.1-100.5,45.6-106.1,126.2
			c-6.5,91.4,44.9,105.9,96.2,99.2c30-3.7,63.5-23.4,83.7-58.7C1003.8,798,1001.8,793.9,999.4,790.8z M919.8,696.1
			c5.4-2.7,12.7-2.7,15.8,2.1c7.4,8.1-0.4,38.3-21.3,41.2l-18,2.5C900.5,713.3,907.4,700.3,919.8,696.1z"/>
		<path class="st0" d="M1184.4,606.7c-8.1-2.7-17.2-5.3-28.1-3.8c-22.2,3.1-44.9,21.9-58.6,63.4l1.2-17.6c0.5-10.2,1.2-19,1.7-25.9
			c0.3-4.9-2.1-8.4-5.9-7.9l-67.8,9.5c-3.3,0.5-6.6,4.8-6.9,9.7c-2.5,37.6-9.5,146-13.1,202.6c-0.3,4.9,2.1,8.4,5.5,7.9l67.8-9.5
			c3.8-0.5,6.6-4.8,6.9-9.7c0.8-13.1,1-17.8,1.5-26.4l2.2-32.1c3.9-37.6,14.2-58.2,34.6-61c8.1-1.1,15.1,0.8,20.2,5.9
			c2.2,2.1,7,1.4,8.8-2.7l31.6-88.6C1188,614.9,1188,608.1,1184.4,606.7z"/>
		<path class="st0" d="M1320.1,708c-1.8-2.6-6.3-0.1-8.7,3.6c-9.3,12.9-23.4,23.1-39.5,25.4c-21.8,3.1-32-7.1-30.8-26.2l64.5-9.1
			c28-3.9,46.9-38,42.3-70.8c-5.9-38.4-33.8-47.5-73.5-44.3c-56.8,5.1-100.5,45.6-106.1,126.2c-6.5,91.4,44.9,105.9,96.2,99.2
			c30-3.7,63.5-23.4,83.7-58.7c2.3-4.2,0.3-8.3-2.1-11.3L1320.1,708z M1266.6,647.4c5.4-2.7,12.7-2.7,15.8,2.1
			c7.4,8.1-0.4,38.3-21.3,41.2l-18,2.5C1247.2,664.6,1254.1,651.5,1266.6,647.4z"/>
		<path class="st0" d="M1463.8,560.1c-33.7,4.7-78.9,16.9-100.5,79.9c-1.1,2.6-1.2,5.5,0.1,7.2c0.8,2.3,2.4,3.5,3.9,3.3l64.6-4.7
			c2.4-0.3,4.1-2,5.6-4.7c6.5-12.5,16.6-15.9,24.5-15.1c15.7,1.7,19.3,23.9,18.6,39.5L1479,686c-7.3-24-29.7-38.7-54.3-35.2
			c-32.7,4.6-67.4,33.2-70.5,80c-3.6,49.9,27.6,65.8,60.4,61.2c24.7-3.5,48.9-23.8,60.2-50.1l-2.1,29.8c-0.3,4.9,2.1,7.9,4.9,7.5
			l66.9-9.4c2.8-0.4,5.7-4.2,6-9.1l5.9-81.6C1561,615.2,1543,549,1463.8,560.1z M1474.2,713.5c-1.2,15.6-10.6,28.1-21,29.6
			c-11.4,1.6-18.5-7.6-17.3-23.2c0.9-18,10.2-30.5,21.1-32C1467.5,686.4,1475.5,695.4,1474.2,713.5z"/>
		<path class="st0" d="M1727.8,531.7c-9.4-5-38.7-3.3-68.7,0c-69,8.2-94.5,47.1-97.2,82.8c-1.9,31.2,12.9,50.4,44.7,60
			c2.5,0.6,12.5,3.1,14.1,3.8c21.1,5.3,32,4.2,31.3,15.9c-0.3,4.9-5.2,7.5-12.3,8.5c-8.1,1.1-19.8-0.1-30.5-3.5
			c-18.1-5.2-27.9-13-37.5-29.1c-1.3-2.7-5.2,0.7-5.6,4.7l-5.4,71.4c-0.6,6.4,1.6,11.4,5.7,13.2c9.4,5,34.5,4.8,64.5,1.1
			c69-7.8,98.1-42.3,101-83.4c3.5-40.2-18.5-52.5-45.2-60.4c-3-1-11.6-3.7-14.6-4.2c-21-4.8-32.2-5.2-31.3-13
			c1.3-7.9,14.7-9.3,28.6-9.8c22.7-0.3,46.1,8,55.8,28.4c1.3,2.7,5.6-1.3,5.6-4.7l2.9-68.6C1733.6,538.7,1731.4,533.7,1727.8,531.7z
			"/>
	</g>
</g>
<g>
	<path class="st1" d="M1096.7,434c-9.4,35.5-66.1,195-71.6,209.6c-2.7,7.1-8,12.7-14.8,15.9c-7,3.3-14.8,3.6-22.1,1
		c-1.6-0.6-141.2-51.7-186.1-69c-3,2.2-6.6,5.2-10.7,8.9c0,0-14.4,14.4-32.8,22.9c-17.7,8.2-37,11.1-57.5,8.4
		c-30.1-3.9-53.3-14.1-69.1-30.2c-14-14.4-18.8-30.6-18.6-40.9c0.3-14.7,6.1-34.7,32.2-46.9c8.5-4,17.8-6.5,26.7-9
		c8-2.2,15.7-4.3,21.8-7.1c1.5-0.7,2.7-1.4,3.9-2.1c-11.8-22.8-19.5-47-22.8-72.1c-26.6-202.7,215.9-317.8,357.6-184.8
		c7.1,6.6,13.7,20.4,11.5,35.1c-1.9,12.4-9.8,22.9-21.7,28.7L988.7,319c4.1,12.8,9.6,23.6,16.5,32.4c12.6,16,30,26.2,54.5,32
		c6.7-2.1,13.7-1.9,20.3,0.9C1093,389.7,1104.3,405.6,1096.7,434z"/>
	<path class="st2" d="M1070.1,407.9c-2.1-0.9-4,0.1-6.4,2.6l-7.2-1.6c-31.4-7-54.8-20.6-71.4-41.7c-12.5-15.8-21.2-36.3-26-61
		l2.5-1.2c3.5-1.7,6.1-4.4,7.6-7.6c2.5,0.4,5.1,0,7.6-1.1l34.5-17c12.6-6.1,6.8-19.4,3.9-22.1c-37.2-34.8-115.4-74.3-211.2-30.5
		c-94.3,43.1-139.7,169.8-74.6,272.4c-1.5,1.9-6,8.7-12.2,14c-25.8,21.9-77.7,13.6-78.3,48c-0.1,7.1,8.7,38,65.4,45.3
		c37.6,4.9,58.8-15.1,69.9-25c15.3-13.7,21.5-16.3,25.9-18c6.5,3.3,175.3,65.3,196.7,73.1c0.9,0.3,1.7,0.2,2.5-0.1
		c0.7-0.3,1.4-1,1.7-1.8c5.3-14,61.8-173.3,70.8-207.1C1072.7,424.6,1075.9,410.3,1070.1,407.9z M1012.1,265.9
		c0.4,3.2-1,6.2-3.7,7.5l-8.2,4c0.2-2.5-0.2-5.1-1.4-7.6l-1.7-3.7C1007.9,265.7,1011.6,266,1012.1,265.9z M977.6,267.7
		c4.4-0.5,8.5-1,12.4-1.2c0,0,7.7,12.4,0,16.1l-15.9,7.7c-1,0.5-2.2,0.7-3.3,0.6c0-1.9-0.4-3.8-1.2-5.6l-7.1-15
		C965.3,269.6,975.3,268,977.6,267.7z M779.8,383.1l-14.3,7c1-5.4,6.4-14,16.6-24.7l2.8,6C786.8,375.6,784.5,380.8,779.8,383.1z
		 M825.3,362l-19.6,9.5c-4.8,2.3-10.3,0.9-12.5-3.1l-4.9-9.2c8.7-8.1,19.8-17.2,33.6-26.8l8.4,17.9C832.2,354.6,830,359.7,825.3,362
		z M870.6,341l-19.4,9.4l-0.2,0.1c-4.6,2.2-10,0.8-12.2-3.2L828.7,328c9.3-6.2,21.5-13.6,36.1-21.3l10.7,22.9
		C877.3,333.7,875.2,338.7,870.6,341z M915.2,320.2l-19.1,9.3c-4.6,2.2-10,0.8-12.2-3.1l-12.4-23.4c11.4-5.8,24-11.5,37.7-16.8
		L920,309C921.8,313.1,919.7,318,915.2,320.2z M928,305.1l-11.4-21.5c7-2.5,14.2-4.9,21.7-7.2c4.7-1.4,17.5-4.7,17.5-4.7l7.7,16.3
		c1,2.3,0.7,4.9-0.4,7c-0.9,1.7-2.4,3.2-4.3,4.1l-18.8,9.2C935.4,310.4,930.2,309,928,305.1z M971.3,492.7l-2-4.4
		c1.7-5.9,2.5-11.8,2.5-17.5l12.4-6.3c3.1-1.5,6.6-0.5,8.1,2.1l6.5,12.4C990,484.5,980.7,489.1,971.3,492.7z M1009.3,472.1
		c-1.3,0.9-2.6,1.9-3.9,2.7l-5.9-12.6c-1.3-2.9,0.2-6.5,3.4-8.1c0,0,14.8-7.5,14.9-7.5c1.9-0.9,3.9-0.9,5.6-0.1
		c1,0.5,1.7,1.3,2.2,2.3c0.9,2.2,3,6.6,3,6.6C1022.9,461.2,1016.5,467,1009.3,472.1z M1033.8,449.7c0,0-1.4-2.5-2.2-4.1
		c-0.6-1.1-0.9-2.3-0.7-3.5c0.2-1.5,1-2.9,2.2-3.5l11.9-6c0,0,0.1,0,0.1,0c0.8-0.4,1.7-0.5,2.7-0.2
		C1043.8,437.8,1039.1,443.8,1033.8,449.7z"/>
	<path class="st3" d="M779.8,383.1l-14.3,7c1-5.4,6.4-14,16.6-24.7l2.8,6C786.8,375.6,784.5,380.8,779.8,383.1z"/>
	<path class="st3" d="M825.3,362l-19.6,9.5c-4.8,2.3-10.3,0.9-12.5-3.1l-4.9-9.2c8.7-8.1,19.8-17.2,33.6-26.8l8.4,17.9
		C832.2,354.6,830,359.7,825.3,362z"/>
	<path class="st3" d="M870.6,341l-19.4,9.4l-0.2,0.1c-4.6,2.2-10,0.8-12.2-3.2L828.6,328c9.3-6.2,21.5-13.6,36.1-21.3l10.7,22.9
		C877.3,333.7,875.2,338.7,870.6,341z"/>
	<path class="st3" d="M915.2,320.3l-19.1,9.3c-4.6,2.2-10,0.8-12.2-3.1l-12.4-23.4c11.4-5.8,24-11.5,37.7-16.8L920,309
		C921.8,313.2,919.7,318.1,915.2,320.3z"/>
	<path class="st3" d="M963.1,295c-0.9,1.7-2.4,3.2-4.3,4.1l-18.8,9.2c-4.5,2.2-9.8,0.8-12-3.1l-11.4-21.5c7-2.5,14.2-4.9,21.7-7.2
		c4.7-1.4,17.5-4.7,17.5-4.7l7.7,16.3C964.5,290.3,964.3,292.8,963.1,295z"/>
	<path class="st3" d="M990,282.6l-15.9,7.7c-1,0.5-2.2,0.7-3.3,0.6c0-1.9-0.4-3.8-1.2-5.6l-7.1-15c2.8-0.6,12.8-2.2,15.1-2.5
		c4.4-0.5,8.5-1,12.4-1.2C990,266.5,997.7,278.9,990,282.6z"/>
	<path class="st3" d="M1008.5,273.3l-8.2,4c0.2-2.5-0.2-5.1-1.4-7.6l-1.7-3.7c10.7-0.4,14.4-0.1,15-0.2
		C1012.6,269.1,1011.2,272,1008.5,273.3z"/>
	<path class="st3" d="M1047.8,432.5c-4,5.4-8.6,11.3-13.9,17.3c0,0-1.4-2.5-2.2-4.1c-0.6-1.1-0.9-2.3-0.7-3.5c0.2-1.5,1-2.9,2.2-3.5
		l11.9-6c0,0,0.1,0,0.1,0C1045.9,432.3,1046.9,432.2,1047.8,432.5z"/>
	<path class="st3" d="M1028.6,455.3c-5.7,5.9-12.2,11.7-19.3,16.8c-1.3,0.9-2.6,1.9-3.9,2.7l-5.9-12.6c-1.3-2.9,0.2-6.5,3.4-8.1
		c0,0,14.8-7.5,14.9-7.5c1.9-0.9,3.9-0.9,5.6-0.1c1,0.5,1.7,1.3,2.2,2.3C1026.5,450.9,1028.6,455.3,1028.6,455.3z"/>
	<path class="st3" d="M998.8,479.1c-8.8,5.4-18,10-27.5,13.6l-2-4.4c1.7-5.9,2.5-11.8,2.5-17.5l12.4-6.3c3.1-1.5,6.6-0.5,8.1,2.1
		L998.8,479.1z"/>
	<path class="st4" d="M1066.1,425c-1.7,7.1-64.8,189.4-69.9,204.1c-13.5-4.9-182.9-67-186.5-68.6c19.6-7.7,98.2,19,147.7-47.5
		c4.6-6.2,6.3-10.2,6.5-10.7c2.3-0.7,5.3-1.7,9.5-3.3c20.7-7.8,37.1-19.5,39.8-21.5c25.8-18.5,45.2-48.4,48-52.5
		c2-2.8,4.1-6,5.7-8.2C1067.7,417.2,1066.4,423.3,1066.1,425z"/>
	<path class="st4" d="M1007.8,259.3c-4-0.1-54-1.7-127.5,32.5c-101.8,47.4-120.3,93-120.3,93.3c-4.9,14.6,21.5,50.9,21.7,51.2
		c13.2,17.6,31.2,31.7,39.5,37.8c-12.6,9.8-43.5,3.1-62.8,6.8c-13.8,2.6-23.6,12.2-24.3,12.9c-59.9-96.1-20-218.7,72.9-261.1
		C914.7,183.4,992.1,245.4,1007.8,259.3z"/>
	<path class="st4" d="M1059.2,416.3c-1,1.5-2.2,3.1-3.4,4.9c-58.9-8.3-95.6-47.2-108.5-109.2l5.7-2.8c5.1,25,14.1,45.8,26.9,62.1
		c17.6,22.4,42.2,36.8,75.2,44.1L1059.2,416.3z"/>
	<g>
		<path class="st2" d="M1031.1,490.1c0.2,1.1-0.1,2.4-1.1,3.2c-1.2,1-2.4,2-3.6,3l0,0c-20.8,16.8-43,24.7-54.5,28.2
			c-1.7,0.5-3.6-0.5-4.1-2.2s0.5-3.6,2.2-4.1c21.9-6.7,40.6-16.8,55.7-29.9c1.4-1.2,3.5-1,4.7,0.3
			C1030.7,489.1,1030.9,489.6,1031.1,490.1z"/>
	</g>
	<g>
		<path class="st2" d="M664.8,461.7c0.8,1.7,0,3.7-1.6,4.4l-120.9,56.4c-1.7,0.8-3.7,0-4.4-1.6c-0.8-1.7,0-3.7,1.6-4.4L660.4,460
			C662.1,459.3,664.1,460,664.8,461.7z"/>
	</g>
	<g>
		<path class="st2" d="M652.1,434.4c0.8,1.7,0,3.7-1.6,4.4l-53.8,25.1c-1.7,0.8-3.7,0-4.4-1.6c-0.8-1.7,0-3.7,1.6-4.4l53.8-25.1
			C649.4,432.1,651.4,432.8,652.1,434.4z"/>
	</g>
	<path class="st2" d="M791,326.1c0.3,1.1,0,2.3-0.8,3.1c-24.8,26.1-71.1,37.9-62,63.2c0.7,1.9,1.7,4,2.8,6c5.2,9.3,14.4,19,22.8,28
		c7.1,7.5,13.7,14.6,18.3,21.3c1,1.5,0.6,3.6-0.9,4.6c-0.1,0.1-0.3,0.2-0.5,0.2c-1.5,0.7-3.2,0.2-4.1-1.2
		c-4.2-6.3-10.7-13.2-17.6-20.5c-7.4-7.9-15-16-20.5-24.1c-1.8-2.6-3.4-5.2-4.6-7.8c-1.4-2.7-2.4-5.5-3-8.3
		c-6.3-27.7,44.3-44.8,64.7-66.2c1.3-1.3,3.4-1.4,4.7-0.1C790.6,325,790.9,325.6,791,326.1z"/>
	<path class="st0" d="M962.2,488.8c-0.4,1.3-3.4,8.5-3.7,9.3c-1.7,3.6-3.8,6.9-5.4,9.4c-1.7,2.6-4.2,5.8-7.5,9.4
		c-33.8,37-86.5,36-86.5,36c-26.8,1-54.2-8.6-89.2,23.5c-6.8,6.3-27.8,28.1-64.7,23.4c-45.8-5.9-59.8-29.8-59.6-38.6
		c0.5-28.2,48.3-19.7,75.9-43.1c19.5-16.4,16.6-34,59.8-31.8c29.8,1.5,41.1-4,45.3-8.3c9.3-9.5-10.5-8.6-38-43.3
		c0,0,14.9-13.8,33.9-19.4c30-8.9,52.8,4.6,52.8,4.6c20.2,14,38.9,62.7-12.4,85.7c-48.2,21.7-87.1-1-114.4,18.5
		c-8.8,6.3-18.2,20.8-22.4,25.8c-8.3,9.6-19.7,15.8-32.6,15.6c13.1,1.1,25.3-4.6,34.4-13.9c4.9-5.1,16.5-24.3,34.6-29.3
		c25.9-7.2,60.1,8.3,102.9-11.4c53.6-24.7,39.3-74.4,18.6-91.2c31.5-3.2,56.1,3.8,69.9,19.8c6.6,7.6,10.3,17.1,11,27.3
		C965.7,476.9,962.4,488.4,962.2,488.8z"/>
</g>
</svg>
